# xmcd
#
# Track frame offsets:
#   150
#   8101
#   13698
#   20875
#   28817
#   35994
#   41591
#
# Disc length: 681 seconds
#
# Revision: 0
# Processed by: cddbd v1.5.2PL0 Copyright (c) Steve Scherf et al.
# Submitted via: uFREEDB ActiveX Control 1.5
#
DISCID=5802a707
DTITLE=maggi - maggi
DYEAR=1900
DGENRE=Dance
TTITLE0=1
TTITLE1=2
TTITLE2=3
TTITLE3=4
TTITLE4=5
TTITLE5=6
TTITLE6=7
EXTD=
EXTT0=
EXTT1=
EXTT2=
EXTT3=
EXTT4=
EXTT5=
EXTT6=
PLAYORDER=
